Patient4_TMGait_0pt5_01_left_22_EMG.mot
version=1
nRows=30
nColumns=33
inDegrees=no
endheader
time	1LAddLong	2LGlutMax	3LGlutMed	4LIliopsoas	5LSemiMemb	6LBicFemLong	7LRecFem	8LVastMed	9LVastLat	10LGasMed	11LTibAnt	12lTibPost	13LPeroneusLong	14LSol	15LExtDigLong	16LFlexDigLong	17RAddLong	18RGlutMax	19RGlutMed	20RIliopsoas	21RSemiMemb	22RBicFemLong	23RRecFem	24RVastMed	25RVastLat	26RGasMed	27RTibAnt	28RTibPost	29RPeroneusLong	30RSol	31RExtDigLong	32RFlexDigLong
30.38	0.008087	0.039673	-0.046387	-0.012512	-0.020447	-0.002289	-0.066223	0.012512	-0.015564	0.4042	0.11841	0.003204	0.024414	-0.046082	0.16556	-0.011444	0.027313	-0.10086	-0.24307	-0.004883	0.34439	-0.14999	0.20355	0.15305	-0.39154	-0.007019	0.09201	-0.002747	-0.1915	-0.048828	-0.016937	0.004578
30.381	0.012054	0.03952	-0.031281	-0.006104	-0.014801	0.072327	-0.066681	0.005341	-0.027924	-0.39688	0.1767	-0.002594	0.001221	-0.049591	0.010986	-0.014038	-0.022888	-0.12817	-0.40726	0.004425	0.1236	0.10086	0.18692	0.11795	-0.41641	-0.007629	0.11993	-0.000458	-0.80612	-0.049896	-0.019684	-0.00473
30.382	0.001831	0.034485	-0.016479	0.002747	-0.004578	0.091095	-0.039215	0.008545	-0.035706	-0.42847	-0.006104	0.005646	0.057678	0.040894	-0.056763	0.006256	-0.006714	-0.053711	-0.55924	0.01358	-0.15427	0.12375	0.26611	0.2681	-0.3775	-0.017395	-0.013123	0.005493	-0.51971	-0.10086	-0.014648	-0.000763
30.383	0.003357	0.045166	-0.007782	0.016785	-0.003357	0.067902	-0.058746	0.010986	-0.039063	-0.33859	-0.037079	0.008392	0.037689	0.23911	-0.12558	0.028687	0.077515	0.068054	-0.44754	-0.014648	-0.1239	-0.081329	0.30441	0.17883	-0.25757	-0.014954	0.037689	-0.001831	-0.12528	-0.1593	-0.015869	-0.001831
30.384	0.011139	0.023193	0.012207	-0.004883	0.001526	0.05722	-0.081329	0.011444	-0.033264	0.11032	-0.02533	0.010681	0.026093	0.24384	-0.16144	0.017853	0.089722	0.19241	-0.18784	-0.042267	-0.003357	-0.29373	0.16251	0.066681	-0.1088	-0.021362	0.12451	-0.002136	0.27847	-0.15839	-0.020599	-0.007477
30.385	0.004272	0.025024	0.027771	0.004272	-0.002441	0.00412	-0.080109	0.004883	-0.023193	0.073395	-0.007324	0.006409	0.061493	0.071564	-0.10757	0.005646	0.088043	0.2945	0.33493	-0.09079	-0.1059	-0.41321	0.067291	0.18204	-0.030518	-0.020447	0.11459	-0.002136	0.56839	-0.1088	-0.017548	-0.006714
30.386	0.011902	0.009155	0.022736	0.020752	-0.000153	-0.079498	-0.088348	0.001831	-0.023651	-0.042877	-0.002747	0.001373	0.030823	0.029449	-0.045624	-0.000458	0.012665	0.28748	0.72693	-0.08255	-0.044403	-0.33341	0.043793	0.13275	-0.014954	-0.013733	0.15045	0.010071	-0.049133	-0.082245	-0.014191	-0.002136
30.387	0.010529	-0.028839	0.032501	0.014801	-0.007935	-0.015717	-0.10071	0.007019	-0.016937	-0.2214	0.014648	-0.00061	-0.046844	0.10269	-0.044403	0.01297	-0.019531	0.3038	0.22873	-0.005646	-0.12528	-0.33844	0.097809	0.066071	-0.071869	0.001068	0.1091	-0.00061	-0.35767	-0.078583	-0.014954	-0.003662
30.388	0.005188	0.001221	0.038757	0.007629	-0.006561	-0.000305	-0.085754	0.006104	-0.02121	-0.019379	0.016632	-0.001068	-0.12116	0.13107	-0.028992	-0.24368	-0.055542	0.25009	0.038452	0.035248	-0.23651	-0.29755	0.12817	-0.086823	-0.056152	0.002441	0.045166	0.000763	-0.28381	-0.019684	-0.015106	-0.007782
30.389	0.008087	0.019531	0.041351	0.007935	-0.002594	0.002289	-0.10468	0.007782	-0.02121	0.32135	0.017242	0.00946	-0.1239	0.14847	-0.019836	-0.059357	-0.090485	0.21637	-0.14175	-0.024414	-0.31128	-0.20798	0.077972	-0.045929	0.051575	-0.00061	0.074463	0.000153	0.10864	-0.001984	-0.014648	-0.015106
30.39	0.004272	-0.013275	0.04303	0.003052	-0.007629	0.01358	-0.097809	0.003662	-0.015259	-0.19928	0.007629	0.00824	-0.1091	0.16205	-0.000916	0.10651	-0.087738	0.12482	-0.1767	-0.023956	-0.052643	-0.1149	-0.027313	0.043335	0.1265	0.009766	-0.05188	-0.004578	-0.22201	-0.059967	-0.014343	-0.012512
30.391	0.009003	-0.02243	0.03067	-0.001984	0.003052	0.058746	-0.091553	0.005341	-0.022888	-0.802	0.003357	0.016937	-0.036774	0.24445	0.005035	-0.084991	-0.095673	0.065765	-0.001678	-0.003662	0.40512	-0.053864	-0.080261	0.27023	0.16602	0.006409	-0.17578	-0.000153	0.29785	-0.045319	-0.013885	-0.003357
30.392	0.002136	-0.040741	0.050812	0	-0.003204	0.089569	-0.085449	0.002136	-0.023193	-0.50644	0.005188	0.001221	0.1004	0.36407	0.020447	0.030823	-0.072021	-0.016937	0.14542	0.081482	0.20905	0.13473	-0.12619	0.29098	0.065765	0.005646	-0.04425	-0.002136	0.64667	-0.057983	-0.014038	-0.007477
30.393	0.007172	-0.066986	0.04837	-0.010223	-0.017395	0.032501	-0.099182	0.001984	-0.018463	-0.24689	-0.005798	-0.060425	0.1062	0.13214	0.019836	0.10361	-0.055695	-0.095673	-0.021362	0.096436	0.090942	0.33066	-0.12131	0.12482	0.015106	0.003815	0.16129	0.001526	0.26321	-0.030975	-0.016479	-0.00946
30.394	0.005951	-0.045166	0.05249	-0.003052	0.00473	-0.007477	-0.1033	0.010223	-0.009308	0.044708	-0.002441	0.084229	0.071411	-0.33981	0.034637	0.085449	-0.023499	-0.10956	-0.17532	0.060883	0.15228	0.2301	-0.060425	0.058899	-0.006256	0.003204	-0.30289	-0.006714	-0.18539	-0.058746	-0.014648	-0.000305
30.395	0.013428	-0.034637	0.040283	0.01236	0.014801	-0.017853	-0.10574	-0.006104	-0.002136	0.30456	-0.008087	0.15579	0.052795	-0.31143	0.054779	0.035553	0.028229	-0.088501	-0.14618	0.060425	0.25574	-0.013885	0.012207	0.09491	0.046234	0.000763	-0.23666	-0.001984	-0.21286	-0.060577	-0.013123	-0.006561
30.396	0.011902	-0.024109	0.037231	0.017548	-0.001831	-0.059052	-0.1236	0.000153	-0.010681	0.10376	-0.004883	-0.056	0.044403	0.036774	0.040894	0.005493	0.091553	-0.023346	0.093689	0.056458	0.37689	-0.1622	0.02655	0.087433	0.38116	-0.002441	-0.11246	-0.002899	-0.17319	0.001526	-0.019836	-0.002747
30.397	0.014343	0.010223	0.033112	0.014343	0.007172	-0.018768	-0.12131	0.004272	-0.001526	0.074615	-0.000916	-0.035248	0.027618	-0.069885	-0.003357	0.014648	0.10284	-0.027618	0.11734	0.018311	0.30029	-0.021667	0.013428	0.020905	0.95505	-0.009003	-0.16007	0.000458	-0.32532	0.006714	-0.015869	-0.007477
30.398	0.011902	0.002441	0.049591	0.005035	0.005798	0.079193	-0.10895	0.001221	-0.005646	-0.028229	0.010223	-0.071564	0.022278	-0.28198	-0.025482	0.03006	0.097809	-0.063324	-0.08194	0.005188	0.085144	-0.056763	-0.009613	-0.15579	1.1903	0.001068	-0.21698	-0.00412	-0.35706	0.00061	-0.016937	-0.010376
30.399	0.005493	0.049438	0.073853	0.007477	0.000916	0.11215	-0.11185	0.005035	-0.004425	-0.32074	0	-0.063934	0.03891	-0.061798	-0.021667	0.011749	0.12558	-0.10819	-0.15945	0.022888	-0.055084	0.060272	0.093842	-0.22232	0.78003	-0.005798	-0.17334	-0.001068	-0.20187	-0.012054	-0.013885	0.000458
30.4	0.010681	0.04837	0.072327	-0.00824	-0.011444	0.05249	-0.11673	-0.001068	-0.008087	-0.40787	-0.004425	0.003967	0.04364	0.13641	-0.021362	-0.006714	0.15076	-0.11353	-0.12772	0.032654	0.051727	0.26352	0.1944	-0.35873	0.19562	-0.018005	-0.15289	-0.003204	-0.012665	-0.015259	-0.015717	-0.00824
30.401	0.006714	0.10849	0.076599	0.010681	-0.018616	0.02594	-0.12695	0.005798	0.00351	-0.31006	0.008698	0.018311	0.020142	0.12695	-0.026855	-0.018005	0.11993	-0.10269	-0.1326	0.023499	0.18127	0.17685	0.22675	-0.42969	-0.21393	-0.006409	-0.12085	0.002899	-0.03006	-0.041046	-0.009766	-0.007477
30.402	0.010681	0.12924	0.10056	0.021362	-0.016022	0.013275	-0.12772	0.003204	0.006409	-0.18433	0.005646	-0.003357	0.017395	0.17059	-0.010681	-0.013428	0.034485	-0.055237	-0.056915	-0.032806	0.28915	0.041809	0.19684	-0.26321	-0.40894	-0.005646	-0.067749	-0.004425	-0.044403	-0.02243	-0.009613	-0.012512
30.403	0.01358	0.095062	0.12512	0.018005	-0.017548	0.000916	-0.12711	0.003204	0.007172	-0.12756	0.012054	-0.014191	0.02533	0.16495	-0.005341	-0.027618	-0.023499	-0.084381	-0.10986	-0.054626	0.34821	0.19623	0.16022	-0.028229	-0.5481	-0.010071	0.00061	-0.000305	-0.088196	-0.007782	-0.012665	-0.002594
30.404	0.012665	0.07782	0.15717	-0.00824	0.009613	-0.021362	-0.13214	0.006256	-0.001526	-0.10513	0.010223	-0.016479	0.013275	0.15213	0.007629	0.016479	-0.014496	-0.22003	-0.082397	-0.049438	0.21133	-0.007629	0.074158	0.27206	-0.63187	-0.007019	0.056305	0	-0.036316	-0.0354	-0.012207	-0.008392
30.405	0.010986	0.10284	0.15808	0.001831	0.010071	-0.006714	-0.12451	0.004272	0.003052	-0.066986	0.009766	-0.006256	0.025177	0.040436	0.022736	0.026855	0.00473	-0.22873	-0.068817	-0.039215	-0.20386	-0.065918	0.15289	0.18539	-0.54077	-0.000458	0.15778	-0.000153	0.005341	-0.088654	-0.005341	-0.009308
30.406	0.011444	0.13855	0.17349	-0.00412	-0.009766	0.027924	-0.12054	0.004272	0.02182	-0.04425	0.005493	0.000305	0.024872	-0.045624	0.018768	0.003357	-0.024567	-0.061493	-0.17364	-0.03418	-0.23346	0.055084	0.14511	0.2504	-0.43182	-0.003357	0.51102	-0.003662	-0.1033	-0.085144	-0.006561	-0.009918
30.407	0.009003	0.1506	0.19501	0.016479	-0.018005	0.06485	-0.12405	0.006866	0.010376	-0.041351	0.001221	-0.008392	0.042725	-0.060577	0.027924	0.00885	-0.02594	-0.07782	-0.19241	-0.079803	0.30228	-0.054321	0.14923	0.62057	-0.27344	-0.005341	0.98908	-0.000305	-0.13168	-0.10666	-0.001984	-0.012512
30.408	0.009003	0.075836	0.20706	0.02655	-0.016022	0.076599	-0.12665	0.003204	0.006409	0.029602	0.001526	-0.004578	0.039368	-0.090332	0.017242	-0.00946	-0.024414	-0.027771	-0.1683	-0.053253	0.16922	-0.14954	0.15915	0.43915	-0.21515	-0.007935	1.2482	0.004425	-0.25436	-0.12833	-0.010071	-0.010223
30.409	0.012817	0.093231	0.22522	-0.010681	-0.00824	0.049744	-0.11108	0.007172	0.011292	0.21545	0.004883	-0.005951	0.047913	-0.029297	0.012817	0.003357	-0.021973	0.15076	-0.089417	-0.002289	-0.10498	-0.16693	0.15167	0.27756	-0.13473	-0.011597	1.0136	-0.006561	-0.2243	-0.13748	-0.00885	-0.007324
